<?xml version="1.0" encoding="UTF-8" standalone="no"?>
<!-- Created with Inkscape (http://www.inkscape.org/) -->

<svg
   xmlns:dc="http://purl.org/dc/elements/1.1/"
   xmlns:cc="http://creativecommons.org/ns#"
   xmlns:rdf="http://www.w3.org/1999/02/22-rdf-syntax-ns#"
   xmlns:svg="http://www.w3.org/2000/svg"
   xmlns="http://www.w3.org/2000/svg"
   xmlns:sodipodi="http://sodipodi.sourceforge.net/DTD/sodipodi-0.dtd"
   xmlns:inkscape="http://www.inkscape.org/namespaces/inkscape"
   id="svg3336"
   version="1.1"
   inkscape:version="0.91 r13725"
   width="222"
   height="88.57"
   viewBox="0 0 222 88.57"
   sodipodi:docname="caffé.svg">
  <metadata
     id="metadata3342">
    <rdf:RDF>
      <cc:Work
         rdf:about="">
        <dc:format>image/svg+xml</dc:format>
        <dc:type
           rdf:resource="http://purl.org/dc/dcmitype/StillImage" />
        <dc:title></dc:title>
      </cc:Work>
    </rdf:RDF>
  </metadata>
  <defs
     id="defs3340" />
  <sodipodi:namedview
     pagecolor="#ffffff"
     bordercolor="#666666"
     borderopacity="1"
     objecttolerance="10"
     gridtolerance="10"
     guidetolerance="10"
     inkscape:pageopacity="0"
     inkscape:pageshadow="2"
     inkscape:window-width="1707"
     inkscape:window-height="897"
     id="namedview3338"
     showgrid="false"
     fit-margin-top="0"
     fit-margin-left="0"
     fit-margin-right="0"
     fit-margin-bottom="0"
     inkscape:zoom="4"
     inkscape:cx="161.65517"
     inkscape:cy="46.064673"
     inkscape:window-x="-8"
     inkscape:window-y="-8"
     inkscape:window-maximized="1"
     inkscape:current-layer="svg3336" />
  <g
     id="g3446"
     transform="matrix(0.09998485,0,0,0.09999346,-5.6784492,-1.4603452)">
    <path
       inkscape:connector-curvature="0"
       id="path3402"
       d="m 422.34375,758.38433 c -96.42188,-56.64382 -175.73438,-102.86687 -176.25,-102.71788 -0.61289,0.17711 -1.09981,32.70504 -1.40625,93.94286 l -0.46875,93.67194 -68.90625,0 -68.90625,0 -0.25614,-220.3125 c -0.14088,-121.17188 -0.0506,-221.16913 0.20059,-222.21613 0.42771,-1.78261 12.99332,-9.81512 15.35424,-9.81512 0.54574,0 80.63552,46.41011 177.97729,103.13358 97.34177,56.72346 177.4185,102.98913 177.94829,102.81257 0.64722,-0.2157 1.11702,-32.74403 1.43198,-99.14921 l 0.46875,-98.82819 67.5,0 67.5,0 0,227.31824 0,227.31825 -6.52762,4.00988 c -3.59018,2.20544 -7.38706,3.96727 -8.4375,3.91518 -1.05043,-0.0521 -80.80051,-46.43964 -177.22238,-103.08347 z M 600.9375,629.61845 c 0,-165.86991 -0.25655,-215.125 -1.125,-215.99345 -1.74481,-1.74481 -104.17958,-1.611 -105.6311,0.13798 -0.75544,0.91026 -1.11479,30.24464 -1.28667,105.0343 l -0.23848,103.7713 -182.8125,-106.53575 C 209.29687,457.43818 125.93385,408.92874 124.59259,408.23408 122.75628,407.28305 121.8879,407.2371 121.07696,408.04804 120.27248,408.85252 120,461.8334 120,617.45457 c 0,114.58127 0.25607,208.9969 0.56905,209.8125 0.50983,1.32861 6.21717,1.48293 54.84375,1.48293 29.85108,0 54.37535,-0.10547 54.49838,-0.23438 0.12302,-0.1289 0.43942,-44.82614 0.70312,-99.32718 l 0.47945,-99.09282 183.64679,107.68494 c 101.00573,59.22671 184.22057,107.46474 184.92188,107.19563 1.06997,-0.41059 1.27508,-35.0517 1.27508,-215.35774 z m 101.6842,212.96164 c -0.24528,-0.64561 -0.33783,-100.73634 -0.2057,-222.42384 l 0.24025,-221.25 220.3125,0 220.31255,0 0,60 0,60 -142.5001,0.46875 -142.49995,0.46875 0,16.875 0,16.875 72.89062,0.24012 c 68.60241,0.22601 72.89103,0.33631 72.89703,1.875 0.016,4.14103 -21.00256,107.72563 -22.09493,108.88879 -1.011,1.07656 -12.22078,1.55291 -61.52698,2.61455 -33.15991,0.71397 -60.82467,1.48197 -61.47726,1.70666 -0.9274,0.3193 -1.13213,6.19743 -0.9375,26.9167 l 0.24902,26.50818 142.49995,0.46875 142.5001,0.46875 0,60 0,60 -220.10684,0.23634 c -175.59354,0.18854 -220.19698,-9.3e-4 -220.55276,-0.9375 z m 426.5971,-59.76759 0,-45.46875 -142.73443,-0.23738 -142.73437,-0.23738 0,-40.80767 c 0,-31.81128 0.25835,-40.89441 1.17187,-41.20114 0.64454,-0.21643 28.93481,-0.98721 62.86728,-1.71286 35.59254,-0.76116 62.07054,-1.69451 62.58204,-2.20601 1.30312,-1.30315 16.94194,-80.25319 16.06968,-81.12544 -0.40781,-0.40777 -32.57456,-0.84957 -71.48176,-0.98176 l -70.74036,-0.24036 -0.24684,-31.63762 -0.24685,-31.63762 142.74685,-0.23738 142.74689,-0.23738 0.2434,-45.40779 c 0.1915,-35.70466 -0.01,-45.56801 -0.9375,-46.15753 -1.3593,-0.86291 -407.61035,-1.07045 -409.85427,-0.20938 -1.34606,0.51653 -1.48293,19.72615 -1.48293,208.1271 l 0,207.55804 206.01562,-0.23646 206.01568,-0.23648 0,-45.46875 z m 97.4668,59.77108 c -0.246,-0.64753 -0.3392,-100.73983 -0.2071,-222.42733 l 0.2403,-221.25 183.75,-0.27352 c 126.6326,-0.18849 186.5042,0.0398 192.6106,0.7342 19.0272,2.1639 33.9899,9.39935 47.3894,22.91569 11.0128,11.10888 16.037,19.73827 20.811,35.74379 1.5345,5.14426 1.6821,12.97669 1.9426,103.06734 0.3124,108.03182 0.5002,104.21421 -5.7704,117.29874 -5.5877,11.65976 -15.0678,21.27923 -29.0714,29.49879 -3.1484,1.84801 -5.6818,3.9664 -5.6298,4.70754 0.052,0.74113 16.5253,24.9635 36.6074,53.82747 20.0821,28.86398 37.9216,54.53848 39.6434,57.05444 l 3.1305,4.5745 -3.6137,7.41196 c -2.3921,4.90605 -4.2581,7.56714 -5.5193,7.87094 -1.0479,0.25244 -37.1319,0.34291 -80.1866,0.20104 l -78.2812,-0.25792 -42.0673,-63.05707 -42.0671,-63.05707 -39.0266,0.24457 -39.0265,0.24457 -0.4688,62.8125 -0.4687,62.8125 -77.1368,0.23983 c -61.214,0.19032 -77.229,-0.003 -77.5839,-0.9375 z m 140.4072,-14.06796 c 0.1197,-0.1289 0.4361,-28.5 0.7031,-63.04687 l 0.4854,-62.8125 48.976,-0.24273 c 45.6941,-0.22647 49.083,-0.13223 50.5732,1.40625 0.8785,0.90694 19.9721,29.28179 42.4303,63.05523 l 40.833,61.40625 71.4843,0.24023 c 61.2366,0.2058 71.4844,0.0494 71.4844,-1.0909 0,-0.73212 -19.0357,-28.68397 -42.3013,-62.11523 -23.2658,-33.43125 -42.4688,-61.2137 -42.6732,-61.73876 -0.2066,-0.53026 2.9885,-1.64952 7.1872,-2.51772 21.2386,-4.39167 38.7981,-20.749 42.1876,-39.29954 0.6302,-3.44886 0.8735,-38.46184 0.7034,-101.25 l -0.2599,-95.97808 -2.2162,-6.5625 c -5.9918,-17.74294 -16.6799,-30.25812 -32.4713,-38.02186 -14.3225,-7.04151 1.72,-6.54081 -201.1259,-6.27739 l -182.3116,0.23675 -0.2403,206.25 c -0.1322,113.4375 -0.04,206.77734 0.2049,207.42187 0.3501,0.92142 13.8761,1.17188 63.2872,1.17188 34.5631,0 62.9399,-0.10547 63.0597,-0.23438 z m 0.2128,-211.875 c -0.2464,-0.64453 -0.3386,-27.11718 -0.2049,-58.82812 l 0.2431,-57.65625 81.7968,-0.23952 81.7969,-0.23952 0,59.06764 0,59.06765 -81.5919,0 c -64.4096,0 -81.6863,-0.24679 -82.04,-1.17188 z m 149.1007,-57.89062 0,-44.53125 -67.5,0 -67.5,0 -0.2444,43.59375 c -0.1343,23.97656 -0.041,44.12389 0.2074,44.77184 0.358,0.93375 14.408,1.12819 67.7443,0.9375 l 67.2927,-0.24059 0,-44.53125 z m 308.4375,282.6515 c -31.7962,-7.13333 -54.5368,-30.29491 -60.9253,-62.05312 -1.3086,-6.50533 -1.4424,-24.42686 -1.2062,-161.53588 0.2927,-169.83959 -0.1791,-155.98253 5.8175,-170.82871 6.1819,-15.30476 18.9804,-29.62002 34.4308,-38.51125 6.8225,-3.92608 20.1831,-7.99982 29.8975,-9.11594 6.1496,-0.70655 59.059,-0.92386 172.9232,-0.71025 l 164.0625,0.30779 7.6065,2.04071 c 27.9308,7.49339 48.8952,27.88624 56.8368,55.28717 l 2.1192,7.31173 0,157.96875 0,157.96875 -2.6883,7.96875 c -3.442,10.20295 -6.8242,16.87628 -12.1314,23.9364 -11.6323,15.47442 -28.2272,26.07772 -46.7814,29.89099 -6.4449,1.32453 -25.4512,1.47705 -175.7813,1.41058 -137.6408,-0.0608 -169.5868,-0.30598 -174.1801,-1.33647 z m 348.6296,-14.04893 c 21.1384,-4.47846 39.403,-21.35627 46.6781,-43.13382 l 2.1923,-6.5625 0.2506,-153.96612 c 0.2796,-171.69122 0.6591,-161.11077 -6.2801,-175.09638 -8.4444,-17.01949 -22.5954,-28.62142 -40.7822,-33.43581 -6.1898,-1.63858 -14.5552,-1.72044 -175.8186,-1.72044 -188.2802,0 -173.7003,-0.50519 -187.9947,6.51392 -15.8258,7.77107 -27.1232,21.14723 -32.5051,38.48608 l -2.1824,7.03125 0,156.09375 0,156.09375 2.6471,7.491 c 4.7866,13.54511 13.4613,25.1474 24.3106,32.51501 6.8963,4.68322 11.909,6.92091 20.6123,9.20141 6.5635,1.71981 12.7606,1.78434 174.6175,1.81843 143.4264,0.0302 168.7486,-0.163 174.2546,-1.32953 z m -277.2193,-91.09853 c -0.3461,-0.34597 -0.6291,-52.44935 -0.6291,-115.78529 l 0,-115.15625 105.4724,0 105.4725,0 -0.2381,115.54687 -0.238,115.54688 -104.6054,0.23842 c -57.5329,0.13112 -104.8884,-0.0446 -105.2343,-0.39063 z m 195.7772,-115.62904 0,-100.78125 -90.4688,0 -90.4687,0 -0.2415,99.84375 c -0.1329,54.91406 -0.039,100.3732 0.2067,101.02031 0.3561,0.9348 18.9958,1.12745 90.7102,0.9375 l 90.2621,-0.23906 0,-100.78125 z M 730.43601,310.23974 c -9.8008,-1.92611 -18.55828,-8.8729 -23.26253,-18.45277 l -2.64223,-5.38072 0,-60 0,-60 2.53481,-5.4093 c 3.32516,-7.09593 10.46817,-13.99585 17.37625,-16.78492 l 5.40144,-2.18078 65.15625,0 65.15625,0 0,25.3125 0,25.3125 -45.9375,0.46875 -45.9375,0.46875 0,32.8125 0,32.8125 45.9375,0.46875 45.9375,0.46875 0.26383,23.4375 c 0.14511,12.89062 0.0316,24.38672 -0.25224,25.54687 l -0.51606,2.10938 -62.56026,-0.10272 c -34.40815,-0.0565 -64.40313,-0.46489 -66.65551,-0.90754 z m 122.11994,-8.91017 c 0.8403,-2.18977 0.66411,-30.66592 -0.19812,-32.02358 -0.56752,-0.8936 -11.25234,-1.21913 -46.15753,-1.40625 l -45.41905,-0.24349 0,-41.25 0,-41.25 45.41905,-0.24349 c 34.90519,-0.18712 45.59001,-0.51265 46.15753,-1.40625 0.86223,-1.35766 1.03842,-29.83381 0.19812,-32.02358 -0.51096,-1.33153 -6.80406,-1.48083 -61.64063,-1.46234 -68.14191,0.023 -64.89002,-0.27667 -71.78071,6.61402 -6.87735,6.87736 -6.59344,3.87293 -6.59344,69.77164 0,65.9207 -0.28843,62.88009 6.61411,69.72378 7.01831,6.95845 3.57615,6.63889 71.76004,6.66188 54.83657,0.0185 61.12967,-0.13081 61.64063,-1.46234 z m 52.76866,9.30754 c -0.35041,-0.35041 -0.63711,-31.9589 -0.63711,-70.24108 0,-65.06529 0.11299,-69.967 1.73269,-75.17112 2.33494,-7.50221 6.49771,-13.28119 12.50049,-17.35392 9.59936,-6.51288 8.16126,-6.40197 79.16151,-6.10547 l 63.63661,0.26573 5.8982,2.72361 c 7.3256,3.38266 14.2015,10.61769 17.2387,18.1389 l 2.1756,5.38749 0,71.25 0,71.25 -31.8119,0.24705 c -24.8264,0.19281 -31.977,-0.013 -32.5637,-0.9375 -0.4136,-0.6515 -0.7585,-9.95169 -0.7664,-20.66709 -0.011,-15.13861 -0.2868,-19.58713 -1.2365,-19.95156 -1.5217,-0.58391 -48.60246,6.85248 -49.5813,7.83134 -0.39206,0.39211 -0.82875,8.08501 -0.97031,17.09534 l -0.25744,16.38242 -31.941,0.24649 c -17.56758,0.13556 -32.22773,-0.0402 -32.57814,-0.39063 z m 56.91883,-9.30754 c 0.31303,-0.8156 0.56906,-8.19842 0.56906,-16.40625 0,-8.20782 0.35728,-14.92332 0.79397,-14.92332 1.01475,0 59.75273,-9.23631 63.19043,-9.93641 l 2.5781,-0.52507 0.014,20.46511 c 0.01,11.25582 0.3538,20.99987 0.7686,21.65345 0.5836,0.91953 6.1471,1.13159 24.5951,0.9375 l 23.841,-0.25083 0.2406,-66.84291 c 0.2389,-66.35378 0.226,-66.8768 -1.7527,-71.47653 -1.0964,-2.5485 -3.621,-6.10414 -5.6104,-7.90142 -7.0986,-6.4131 -3.5243,-6.12507 -75.72639,-6.1023 -72.84996,0.023 -69.06478,-0.3065 -75.9853,6.61402 -6.93246,6.93247 -6.59104,2.91543 -6.61402,77.81851 -0.0113,36.91016 0.26066,67.39063 0.60441,67.73438 0.34375,0.34375 11.26737,0.625 24.27472,0.625 20.70056,0 23.72062,-0.18492 24.21872,-1.48293 z m 1.01906,-62.1296 c -0.2475,-0.24749 -0.45,-12.40309 -0.45,-27.01247 l 0,-26.5625 33.28125,0 33.28125,0 0,21.59192 c 0,16.42034 -0.2807,21.69441 -1.1719,22.01981 -2.3699,0.86532 -64.5056,10.39824 -64.9406,9.96324 z m 33.09928,-12.34894 c 13.23362,-2.07568 24.39952,-4.11238 24.81322,-4.52599 0.4136,-0.41361 0.6348,-7.04736 0.4916,-14.74165 l -0.2604,-13.98964 -25.31245,0 -25.3125,0 -0.25631,17.31359 c -0.24394,16.47993 -0.0431,19.71766 1.221,19.71766 0.30515,0 11.38228,-1.69829 24.61584,-3.77397 z m 135.63732,83.23976 c -0.2484,-0.6515 -0.3428,-38.73142 -0.2098,-84.62204 l 0.242,-83.4375 77.3437,0 77.3438,0 0,25.3125 0,25.3125 -45.4688,0.46875 -45.4687,0.46875 0,3.75 0,3.75 26.2183,0.24956 c 14.42,0.13726 26.5472,0.5784 26.9491,0.98031 0.9242,0.92433 -7.6026,44.31844 -9.004,45.82161 -0.7008,0.75173 -8.0504,1.36146 -22.6009,1.875 l -21.5625,0.76102 -0.4688,30 -0.4687,30 -31.1965,0.24704 c -24.4538,0.19365 -31.294,-0.009 -31.6482,-0.9375 z m 55.592,-37.36794 0.2474,-29.62091 12.7914,-0.61347 c 7.0354,-0.3374 17.1029,-0.61347 22.3723,-0.61347 6.9278,0 9.8733,-0.35258 10.6375,-1.27327 1.312,-1.58097 6.6596,-27.67036 6.0155,-29.34868 -0.3667,-0.95579 -6.0346,-1.27776 -25.9217,-1.47253 l -25.4522,-0.24927 0,-12.1875 0,-12.1875 45.4687,-0.46875 45.4688,-0.46875 0,-16.875 0,-16.875 -69.375,0 -69.375,0 -0.2423,75 c -0.1332,41.25 -0.038,75.53474 0.2113,76.1883 0.3529,0.92469 5.6059,1.13267 23.6797,0.9375 l 23.2263,-0.2508 0.2473,-29.6209 z m 129.0955,37.36794 c -0.2484,-0.6515 -0.3428,-38.73142 -0.2098,-84.62204 l 0.242,-83.4375 77.3437,0 77.3438,0 0,25.3125 0,25.3125 -45.4688,0.46875 -45.4687,0.46875 0,3.75 0,3.75 26.2183,0.24956 c 14.42,0.13726 26.5158,0.55914 26.8796,0.9375 0.7914,0.82325 -7.9638,44.99809 -9.1488,46.16084 -0.4533,0.44475 -10.5273,1.1531 -22.3867,1.57412 l -21.5625,0.76548 -0.4687,30 -0.4688,30 -31.1964,0.24704 c -24.4538,0.19365 -31.294,-0.009 -31.6482,-0.9375 z m 55.2443,-8.76122 c 0.3131,-0.8156 0.5691,-14.2502 0.5691,-29.85466 l 0,-28.37173 12.8045,-0.61409 c 7.0425,-0.33775 17.1158,-0.61409 22.3852,-0.61409 6.5302,0 9.8848,-0.37313 10.5357,-1.17188 1.1058,-1.35688 5.8371,-24.0851 5.8371,-28.04037 l 0,-2.66275 -25.8084,0 -25.8086,0 0.2617,-12.42188 0.2616,-12.42187 44.9504,-0.24358 c 34.5301,-0.18712 45.1215,-0.5131 45.6886,-1.40625 0.8623,-1.3576 1.0384,-29.8338 0.1981,-32.02349 C 1463.2942,150.1492 1456.2668,150 1393.9622,150 l -69.2747,0 0,75.78125 c 0,41.67969 0.2813,76.0625 0.625,76.40625 0.3437,0.34375 10.8455,0.625 23.3372,0.625 19.8457,0 22.784,-0.18716 23.2812,-1.48293 z m 132.2528,8.7536 c -0.2469,-0.64731 -0.3399,-38.7238 -0.2069,-84.61442 l 0.242,-83.4375 83.9062,0 83.9063,0 0,25.3125 0,25.3125 -52.0313,0.46875 -52.0312,0.46875 0,3.75 0,3.75 26.2183,0.24956 c 14.42,0.13726 26.5158,0.55914 26.8796,0.9375 0.7914,0.82325 -7.9638,44.99809 -9.1488,46.16084 -0.4533,0.44475 -10.5273,1.1531 -22.3867,1.57412 l -21.5625,0.76548 0,4.6875 0,4.6875 52.0313,0.46875 52.0312,0.46875 0,24.84375 0,24.84375 -83.6993,0.23942 c -66.4639,0.19011 -83.7918,-0.003 -84.1482,-0.9375 z m 158.7292,-7.11976 c 0.9108,-0.57804 1.1333,-4.74601 0.9375,-17.56377 l -0.2566,-16.80589 -51.7969,-0.24232 -51.7969,-0.2423 0,-12.50298 0,-12.50297 12.8045,-0.61409 c 7.0425,-0.33775 17.1158,-0.61409 22.3852,-0.61409 6.5513,0 9.8702,-0.37056 10.4964,-1.17188 1.3126,-1.67999 6.2187,-27.52137 5.5539,-29.25375 C 1610.7573,210.19129 1607.3357,210 1585.3147,210 l -25.3692,0 0.2617,-12.42188 0.2615,-12.42187 51.5625,-0.46875 51.5625,-0.46875 0,-16.875 0,-16.875 -75.4099,-0.23999 c -59.7079,-0.19002 -75.5656,0.006 -76.1576,0.9375 -0.411,0.64761 -0.754,34.73765 -0.7619,75.75561 -0.011,56.7714 0.2543,74.84674 1.1107,75.70313 0.8563,0.85628 18.8275,1.12157 75.2344,1.11065 40.7601,-0.007 74.6467,-0.35541 75.3035,-0.77224 z M 1586.485,128.86393 c -13.2825,-3.57666 -21.6984,-12.69233 -24.7186,-26.77377 -1.2069,-5.627776 -0.5741,-24.907485 0.8649,-26.346472 1.0159,-1.01588 102.1061,27.889162 104.1361,29.775952 1.3876,1.28978 7.6344,23.51609 6.8342,24.31634 -0.2622,0.26209 -18.8633,0.44875 -41.336,0.41482 -32.1078,-0.0485 -41.9134,-0.34553 -45.7806,-1.38687 z m 75.1571,-6.62048 c 1.7327,-0.66492 1.9032,-3.57059 0.4533,-7.72953 -1.1961,-3.43139 4.1305,-1.60154 -51.9294,-17.839445 -21.1353,-6.121889 -38.9337,-10.936564 -39.5521,-10.699274 -1.8528,0.710981 -2.3213,5.217688 -1.2438,11.96309 1.3143,8.226849 2.7761,11.597839 7.109,16.393869 4.0591,4.49292 7.3443,6.40479 12.8894,7.50123 4.5143,0.89262 70.0471,1.26443 72.2736,0.41006 z"
       style="fill:#ce7502" />
    <path
       inkscape:connector-curvature="0"
       id="path3384"
       d="m 422.34375,758.38433 c -96.42188,-56.64382 -175.73438,-102.86687 -176.25,-102.71788 -0.61289,0.17711 -1.09981,32.70504 -1.40625,93.94286 l -0.46875,93.67194 -68.90625,0 -68.90625,0 -0.25614,-220.3125 c -0.14088,-121.17188 -0.0506,-221.16913 0.20059,-222.21613 0.42771,-1.78261 12.99332,-9.81512 15.35424,-9.81512 0.54574,0 80.63552,46.41011 177.97729,103.13358 97.34177,56.72346 177.4185,102.98913 177.94829,102.81257 0.64722,-0.2157 1.11702,-32.74403 1.43198,-99.14921 l 0.46875,-98.82819 67.5,0 67.5,0 0,227.31824 0,227.31825 -6.52762,4.00988 c -3.59018,2.20544 -7.38706,3.96727 -8.4375,3.91518 -1.05043,-0.0521 -80.80051,-46.43964 -177.22238,-103.08347 z M 600.9375,629.61845 c 0,-165.86991 -0.25655,-215.125 -1.125,-215.99345 -1.74481,-1.74481 -104.17958,-1.611 -105.6311,0.13798 -0.75544,0.91026 -1.11479,30.24464 -1.28667,105.0343 l -0.23848,103.7713 -182.8125,-106.53575 C 209.29687,457.43818 125.93385,408.92874 124.59259,408.23408 122.75628,407.28305 121.8879,407.2371 121.07696,408.04804 120.27248,408.85252 120,461.8334 120,617.45457 c 0,114.58127 0.25607,208.9969 0.56905,209.8125 0.50983,1.32861 6.21717,1.48293 54.84375,1.48293 29.85108,0 54.37535,-0.10547 54.49838,-0.23438 0.12302,-0.1289 0.43942,-44.82614 0.70312,-99.32718 l 0.47945,-99.09282 183.64679,107.68494 c 101.00573,59.22671 184.22057,107.46474 184.92188,107.19563 1.06997,-0.41059 1.27508,-35.0517 1.27508,-215.35774 z m 101.6842,212.96164 c -0.24528,-0.64561 -0.33783,-100.73634 -0.2057,-222.42384 l 0.24025,-221.25 220.3125,0 220.31255,0 0,60 0,60 -142.5001,0.46875 -142.49995,0.46875 0,16.875 0,16.875 72.89062,0.24012 c 68.60241,0.22601 72.89103,0.33631 72.89703,1.875 0.016,4.14103 -21.00256,107.72563 -22.09493,108.88879 -1.011,1.07656 -12.22078,1.55291 -61.52698,2.61455 -33.15991,0.71397 -60.82467,1.48197 -61.47726,1.70666 -0.9274,0.3193 -1.13213,6.19743 -0.9375,26.9167 l 0.24902,26.50818 142.49995,0.46875 142.5001,0.46875 0,60 0,60 -220.10684,0.23634 c -175.59354,0.18854 -220.19698,-9.3e-4 -220.55276,-0.9375 z m 426.5971,-59.76759 0,-45.46875 -142.73443,-0.23738 -142.73437,-0.23738 0,-40.80767 c 0,-31.81128 0.25835,-40.89441 1.17187,-41.20114 0.64454,-0.21643 28.93481,-0.98721 62.86728,-1.71286 35.59254,-0.76116 62.07054,-1.69451 62.58204,-2.20601 1.30312,-1.30315 16.94194,-80.25319 16.06968,-81.12544 -0.40781,-0.40777 -32.57456,-0.84957 -71.48176,-0.98176 l -70.74036,-0.24036 -0.24684,-31.63762 -0.24685,-31.63762 142.74685,-0.23738 142.74689,-0.23738 0.2434,-45.40779 c 0.1915,-35.70466 -0.01,-45.56801 -0.9375,-46.15753 -1.3593,-0.86291 -407.61035,-1.07045 -409.85427,-0.20938 -1.34606,0.51653 -1.48293,19.72615 -1.48293,208.1271 l 0,207.55804 206.01562,-0.23646 206.01568,-0.23648 0,-45.46875 z m 97.4668,59.77108 c -0.246,-0.64753 -0.3392,-100.73983 -0.2071,-222.42733 l 0.2403,-221.25 183.75,-0.27352 c 126.6326,-0.18849 186.5042,0.0398 192.6106,0.7342 19.0272,2.1639 33.9899,9.39935 47.3894,22.91569 11.0128,11.10888 16.037,19.73827 20.811,35.74379 1.5345,5.14426 1.6821,12.97669 1.9426,103.06734 0.3124,108.03182 0.5002,104.21421 -5.7704,117.29874 -5.5877,11.65976 -15.0678,21.27923 -29.0714,29.49879 -3.1484,1.84801 -5.6818,3.9664 -5.6298,4.70754 0.052,0.74113 16.5253,24.9635 36.6074,53.82747 20.0821,28.86398 37.9216,54.53848 39.6434,57.05444 l 3.1305,4.5745 -3.6137,7.41196 c -2.3921,4.90605 -4.2581,7.56714 -5.5193,7.87094 -1.0479,0.25244 -37.1319,0.34291 -80.1866,0.20104 l -78.2812,-0.25792 -42.0673,-63.05707 -42.0671,-63.05707 -39.0266,0.24457 -39.0265,0.24457 -0.4688,62.8125 -0.4687,62.8125 -77.1368,0.23983 c -61.214,0.19032 -77.229,-0.003 -77.5839,-0.9375 z m 140.4072,-14.06796 c 0.1197,-0.1289 0.4361,-28.5 0.7031,-63.04687 l 0.4854,-62.8125 48.976,-0.24273 c 45.6941,-0.22647 49.083,-0.13223 50.5732,1.40625 0.8785,0.90694 19.9721,29.28179 42.4303,63.05523 l 40.833,61.40625 71.4843,0.24023 c 61.2366,0.2058 71.4844,0.0494 71.4844,-1.0909 0,-0.73212 -19.0357,-28.68397 -42.3013,-62.11523 -23.2658,-33.43125 -42.4688,-61.2137 -42.6732,-61.73876 -0.2066,-0.53026 2.9885,-1.64952 7.1872,-2.51772 21.2386,-4.39167 38.7981,-20.749 42.1876,-39.29954 0.6302,-3.44886 0.8735,-38.46184 0.7034,-101.25 l -0.2599,-95.97808 -2.2162,-6.5625 c -5.9918,-17.74294 -16.6799,-30.25812 -32.4713,-38.02186 -14.3225,-7.04151 1.72,-6.54081 -201.1259,-6.27739 l -182.3116,0.23675 -0.2403,206.25 c -0.1322,113.4375 -0.04,206.77734 0.2049,207.42187 0.3501,0.92142 13.8761,1.17188 63.2872,1.17188 34.5631,0 62.9399,-0.10547 63.0597,-0.23438 z m 0.2128,-211.875 c -0.2464,-0.64453 -0.3386,-27.11718 -0.2049,-58.82812 l 0.2431,-57.65625 81.7968,-0.23952 81.7969,-0.23952 0,59.06764 0,59.06765 -81.5919,0 c -64.4096,0 -81.6863,-0.24679 -82.04,-1.17188 z m 149.1007,-57.89062 0,-44.53125 -67.5,0 -67.5,0 -0.2444,43.59375 c -0.1343,23.97656 -0.041,44.12389 0.2074,44.77184 0.358,0.93375 14.408,1.12819 67.7443,0.9375 l 67.2927,-0.24059 0,-44.53125 z m 308.4375,282.6515 c -31.7962,-7.13333 -54.5368,-30.29491 -60.9253,-62.05312 -1.3086,-6.50533 -1.4424,-24.42686 -1.2062,-161.53588 0.2927,-169.83959 -0.1791,-155.98253 5.8175,-170.82871 6.1819,-15.30476 18.9804,-29.62002 34.4308,-38.51125 6.8225,-3.92608 20.1831,-7.99982 29.8975,-9.11594 6.1496,-0.70655 59.059,-0.92386 172.9232,-0.71025 l 164.0625,0.30779 7.6065,2.04071 c 27.9308,7.49339 48.8952,27.88624 56.8368,55.28717 l 2.1192,7.31173 0,157.96875 0,157.96875 -2.6883,7.96875 c -3.442,10.20295 -6.8242,16.87628 -12.1314,23.9364 -11.6323,15.47442 -28.2272,26.07772 -46.7814,29.89099 -6.4449,1.32453 -25.4512,1.47705 -175.7813,1.41058 -137.6408,-0.0608 -169.5868,-0.30598 -174.1801,-1.33647 z m 348.6296,-14.04893 c 21.1384,-4.47846 39.403,-21.35627 46.6781,-43.13382 l 2.1923,-6.5625 0.2506,-153.96612 c 0.2796,-171.69122 0.6591,-161.11077 -6.2801,-175.09638 -8.4444,-17.01949 -22.5954,-28.62142 -40.7822,-33.43581 -6.1898,-1.63858 -14.5552,-1.72044 -175.8186,-1.72044 -188.2802,0 -173.7003,-0.50519 -187.9947,6.51392 -15.8258,7.77107 -27.1232,21.14723 -32.5051,38.48608 l -2.1824,7.03125 0,156.09375 0,156.09375 2.6471,7.491 c 4.7866,13.54511 13.4613,25.1474 24.3106,32.51501 6.8963,4.68322 11.909,6.92091 20.6123,9.20141 6.5635,1.71981 12.7606,1.78434 174.6175,1.81843 143.4264,0.0302 168.7486,-0.163 174.2546,-1.32953 z m -277.2193,-91.09853 c -0.3461,-0.34597 -0.6291,-52.44935 -0.6291,-115.78529 l 0,-115.15625 105.4724,0 105.4725,0 -0.2381,115.54687 -0.238,115.54688 -104.6054,0.23842 c -57.5329,0.13112 -104.8884,-0.0446 -105.2343,-0.39063 z m 195.7772,-115.62904 0,-100.78125 -90.4688,0 -90.4687,0 -0.2415,99.84375 c -0.1329,54.91406 -0.039,100.3732 0.2067,101.02031 0.3561,0.9348 18.9958,1.12745 90.7102,0.9375 l 90.2621,-0.23906 0,-100.78125 z M 730.43601,310.23974 c -9.8008,-1.92611 -18.55828,-8.8729 -23.26253,-18.45277 l -2.64223,-5.38072 0,-60 0,-60 2.53481,-5.4093 c 3.32516,-7.09593 10.46817,-13.99585 17.37625,-16.78492 l 5.40144,-2.18078 65.15625,0 65.15625,0 0,25.3125 0,25.3125 -45.9375,0.46875 -45.9375,0.46875 0,32.8125 0,32.8125 45.9375,0.46875 45.9375,0.46875 0.26383,23.4375 c 0.14511,12.89062 0.0316,24.38672 -0.25224,25.54687 l -0.51606,2.10938 -62.56026,-0.10272 c -34.40815,-0.0565 -64.40313,-0.46489 -66.65551,-0.90754 z m 122.11994,-8.91017 c 0.8403,-2.18977 0.66411,-30.66592 -0.19812,-32.02358 -0.56752,-0.8936 -11.25234,-1.21913 -46.15753,-1.40625 l -45.41905,-0.24349 0,-41.25 0,-41.25 45.41905,-0.24349 c 34.90519,-0.18712 45.59001,-0.51265 46.15753,-1.40625 0.86223,-1.35766 1.03842,-29.83381 0.19812,-32.02358 -0.51096,-1.33153 -6.80406,-1.48083 -61.64063,-1.46234 -68.14191,0.023 -64.89002,-0.27667 -71.78071,6.61402 -6.87735,6.87736 -6.59344,3.87293 -6.59344,69.77164 0,65.9207 -0.28843,62.88009 6.61411,69.72378 7.01831,6.95845 3.57615,6.63889 71.76004,6.66188 54.83657,0.0185 61.12967,-0.13081 61.64063,-1.46234 z m 52.76866,9.30754 c -0.35041,-0.35041 -0.63711,-31.9589 -0.63711,-70.24108 0,-65.06529 0.11299,-69.967 1.73269,-75.17112 2.33494,-7.50221 6.49771,-13.28119 12.50049,-17.35392 9.59936,-6.51288 8.16126,-6.40197 79.16151,-6.10547 l 63.63661,0.26573 5.8982,2.72361 c 7.3256,3.38266 14.2015,10.61769 17.2387,18.1389 l 2.1756,5.38749 0,71.25 0,71.25 -31.8119,0.24705 c -24.8264,0.19281 -31.977,-0.013 -32.5637,-0.9375 -0.4136,-0.6515 -0.7585,-9.95169 -0.7664,-20.66709 -0.011,-15.13861 -0.2868,-19.58713 -1.2365,-19.95156 -1.5217,-0.58391 -48.60246,6.85248 -49.5813,7.83134 -0.39206,0.39211 -0.82875,8.08501 -0.97031,17.09534 l -0.25744,16.38242 -31.941,0.24649 c -17.56758,0.13556 -32.22773,-0.0402 -32.57814,-0.39063 z m 56.91883,-9.30754 c 0.31303,-0.8156 0.56906,-8.19842 0.56906,-16.40625 0,-8.20782 0.35728,-14.92332 0.79397,-14.92332 1.01475,0 59.75273,-9.23631 63.19043,-9.93641 l 2.5781,-0.52507 0.014,20.46511 c 0.01,11.25582 0.3538,20.99987 0.7686,21.65345 0.5836,0.91953 6.1471,1.13159 24.5951,0.9375 l 23.841,-0.25083 0.2406,-66.84291 c 0.2389,-66.35378 0.226,-66.8768 -1.7527,-71.47653 -1.0964,-2.5485 -3.621,-6.10414 -5.6104,-7.90142 -7.0986,-6.4131 -3.5243,-6.12507 -75.72639,-6.1023 -72.84996,0.023 -69.06478,-0.3065 -75.9853,6.61402 -6.93246,6.93247 -6.59104,2.91543 -6.61402,77.81851 -0.0113,36.91016 0.26066,67.39063 0.60441,67.73438 0.34375,0.34375 11.26737,0.625 24.27472,0.625 20.70056,0 23.72062,-0.18492 24.21872,-1.48293 z m 1.01906,-62.1296 c -0.2475,-0.24749 -0.45,-12.40309 -0.45,-27.01247 l 0,-26.5625 33.28125,0 33.28125,0 0,21.59192 c 0,16.42034 -0.2807,21.69441 -1.1719,22.01981 -2.3699,0.86532 -64.5056,10.39824 -64.9406,9.96324 z m 33.09928,-12.34894 c 13.23362,-2.07568 24.39952,-4.11238 24.81322,-4.52599 0.4136,-0.41361 0.6348,-7.04736 0.4916,-14.74165 l -0.2604,-13.98964 -25.31245,0 -25.3125,0 -0.25631,17.31359 c -0.24394,16.47993 -0.0431,19.71766 1.221,19.71766 0.30515,0 11.38228,-1.69829 24.61584,-3.77397 z m 135.63732,83.23976 c -0.2484,-0.6515 -0.3428,-38.73142 -0.2098,-84.62204 l 0.242,-83.4375 77.3437,0 77.3438,0 0,25.3125 0,25.3125 -45.4688,0.46875 -45.4687,0.46875 0,3.75 0,3.75 26.2183,0.24956 c 14.42,0.13726 26.5472,0.5784 26.9491,0.98031 0.9242,0.92433 -7.6026,44.31844 -9.004,45.82161 -0.7008,0.75173 -8.0504,1.36146 -22.6009,1.875 l -21.5625,0.76102 -0.4688,30 -0.4687,30 -31.1965,0.24704 c -24.4538,0.19365 -31.294,-0.009 -31.6482,-0.9375 z m 55.592,-37.36794 0.2474,-29.62091 12.7914,-0.61347 c 7.0354,-0.3374 17.1029,-0.61347 22.3723,-0.61347 6.9278,0 9.8733,-0.35258 10.6375,-1.27327 1.312,-1.58097 6.6596,-27.67036 6.0155,-29.34868 -0.3667,-0.95579 -6.0346,-1.27776 -25.9217,-1.47253 l -25.4522,-0.24927 0,-12.1875 0,-12.1875 45.4687,-0.46875 45.4688,-0.46875 0,-16.875 0,-16.875 -69.375,0 -69.375,0 -0.2423,75 c -0.1332,41.25 -0.038,75.53474 0.2113,76.1883 0.3529,0.92469 5.6059,1.13267 23.6797,0.9375 l 23.2263,-0.2508 0.2473,-29.6209 z m 129.0955,37.36794 c -0.2484,-0.6515 -0.3428,-38.73142 -0.2098,-84.62204 l 0.242,-83.4375 77.3437,0 77.3438,0 0,25.3125 0,25.3125 -45.4688,0.46875 -45.4687,0.46875 0,3.75 0,3.75 26.2183,0.24956 c 14.42,0.13726 26.5158,0.55914 26.8796,0.9375 0.7914,0.82325 -7.9638,44.99809 -9.1488,46.16084 -0.4533,0.44475 -10.5273,1.1531 -22.3867,1.57412 l -21.5625,0.76548 -0.4687,30 -0.4688,30 -31.1964,0.24704 c -24.4538,0.19365 -31.294,-0.009 -31.6482,-0.9375 z m 55.2443,-8.76122 c 0.3131,-0.8156 0.5691,-14.2502 0.5691,-29.85466 l 0,-28.37173 12.8045,-0.61409 c 7.0425,-0.33775 17.1158,-0.61409 22.3852,-0.61409 6.5302,0 9.8848,-0.37313 10.5357,-1.17188 1.1058,-1.35688 5.8371,-24.0851 5.8371,-28.04037 l 0,-2.66275 -25.8084,0 -25.8086,0 0.2617,-12.42188 0.2616,-12.42187 44.9504,-0.24358 c 34.5301,-0.18712 45.1215,-0.5131 45.6886,-1.40625 0.8623,-1.3576 1.0384,-29.8338 0.1981,-32.02349 C 1463.2942,150.1492 1456.2668,150 1393.9622,150 l -69.2747,0 0,75.78125 c 0,41.67969 0.2813,76.0625 0.625,76.40625 0.3437,0.34375 10.8455,0.625 23.3372,0.625 19.8457,0 22.784,-0.18716 23.2812,-1.48293 z m 132.2528,8.7536 c -0.2469,-0.64731 -0.3399,-38.7238 -0.2069,-84.61442 l 0.242,-83.4375 83.9062,0 83.9063,0 0,25.3125 0,25.3125 -52.0313,0.46875 -52.0312,0.46875 0,3.75 0,3.75 26.2183,0.24956 c 14.42,0.13726 26.5158,0.55914 26.8796,0.9375 0.7914,0.82325 -7.9638,44.99809 -9.1488,46.16084 -0.4533,0.44475 -10.5273,1.1531 -22.3867,1.57412 l -21.5625,0.76548 0,4.6875 0,4.6875 52.0313,0.46875 52.0312,0.46875 0,24.84375 0,24.84375 -83.6993,0.23942 c -66.4639,0.19011 -83.7918,-0.003 -84.1482,-0.9375 z m 158.7292,-7.11976 c 0.9108,-0.57804 1.1333,-4.74601 0.9375,-17.56377 l -0.2566,-16.80589 -51.7969,-0.24232 -51.7969,-0.2423 0,-12.50298 0,-12.50297 12.8045,-0.61409 c 7.0425,-0.33775 17.1158,-0.61409 22.3852,-0.61409 6.5513,0 9.8702,-0.37056 10.4964,-1.17188 1.3126,-1.67999 6.2187,-27.52137 5.5539,-29.25375 C 1610.7573,210.19129 1607.3357,210 1585.3147,210 l -25.3692,0 0.2617,-12.42188 0.2615,-12.42187 51.5625,-0.46875 51.5625,-0.46875 0,-16.875 0,-16.875 -75.4099,-0.23999 c -59.7079,-0.19002 -75.5656,0.006 -76.1576,0.9375 -0.411,0.64761 -0.754,34.73765 -0.7619,75.75561 -0.011,56.7714 0.2543,74.84674 1.1107,75.70313 0.8563,0.85628 18.8275,1.12157 75.2344,1.11065 40.7601,-0.007 74.6467,-0.35541 75.3035,-0.77224 z M 1586.485,128.86393 c -13.2825,-3.57666 -21.6984,-12.69233 -24.7186,-26.77377 -1.2069,-5.627776 -0.5741,-24.907485 0.8649,-26.346472 1.0159,-1.01588 102.1061,27.889162 104.1361,29.775952 1.3876,1.28978 7.6344,23.51609 6.8342,24.31634 -0.2622,0.26209 -18.8633,0.44875 -41.336,0.41482 -32.1078,-0.0485 -41.9134,-0.34553 -45.7806,-1.38687 z m 75.1571,-6.62048 c 1.7327,-0.66492 1.9032,-3.57059 0.4533,-7.72953 -1.1961,-3.43139 4.1305,-1.60154 -51.9294,-17.839445 -21.1353,-6.121889 -38.9337,-10.936564 -39.5521,-10.699274 -1.8528,0.710981 -2.3213,5.217688 -1.2438,11.96309 1.3143,8.226849 2.7761,11.597839 7.109,16.393869 4.0591,4.49292 7.3443,6.40479 12.8894,7.50123 4.5143,0.89262 70.0471,1.26443 72.2736,0.41006 z"
       style="fill:#ce7502" />
    <path
       inkscape:connector-curvature="0"
       id="path3404"
       d="m 717.50834,632.37624 c 0,-107.08863 0.57821,-200.23863 1.28491,-206.99999 l 1.28491,-12.29339 203.59253,0 203.59251,0 1.371,9.14212 c 1.7428,11.62155 0.1626,78.23565 -1.9049,80.3048 -0.8535,0.8542 -64.9274,1.84248 -142.38641,2.19618 l -140.83455,0.6431 0,31.66257 0,31.66258 69.83448,0.69432 c 38.40897,0.38189 70.38705,1.24741 71.06239,1.9234 1.31118,1.31241 -12.3586,73.66391 -14.60424,77.29743 -0.8718,1.41062 -22.8235,2.7338 -63.31357,3.81638 l -61.97906,1.65712 -0.54058,41.5 -0.54058,41.5 116.54057,0.008 c 64.09735,0.004 128.01555,0.59334 142.04055,1.30864 l 25.5,1.30052 0,43.69136 0,43.69148 -204.99997,0 -204.99999,0 0,-194.70662 z"
       style="fill:#ffffe0;fill-opacity:1" />
    <path
       inkscape:connector-curvature="0"
       id="path3406"
       d="m 583.50834,835.30042 c -7.15,-4.19242 -74.65,-43.63906 -150,-87.65918 -75.35,-44.02014 -151.56105,-88.61796 -169.35789,-99.10628 -17.79683,-10.48832 -32.87183,-18.55572 -33.5,-17.92754 -0.62816,0.62816 -1.14211,45.0921 -1.14211,98.80878 l 0,97.66666 -54,0 -54,0 0,-209 c 0,-114.95 0.69189,-209 1.53753,-209 0.84565,0 84.22392,48.15 185.28505,107 101.06114,58.85 184.06924,107 184.46246,107 0.39324,0 0.71496,-45.72798 0.71496,-101.61774 0,-78.13768 0.57766,-102.40762 2.5,-105.0362 2.26168,-3.09258 7.26648,-3.36734 52.5,-2.88226 l 50,0.5362 0.509,214.5 c 0.27996,117.975 -0.17,214.46404 -1,214.42008 -0.82994,-0.044 -7.359,-3.51008 -14.509,-7.70252 z"
       style="fill:#ffffe0;fill-opacity:1" />
    <path
       inkscape:connector-curvature="0"
       id="path3408"
       d="m 1241.5083,621.04298 0,-206.03986 187.5,0.53987 187.5,0.53987 9.3703,5.61404 c 11.9352,7.15071 22.8393,19.21038 27.7697,30.71244 3.6461,8.5061 3.8596,14.67633 3.8526,111.33933 -0.01,100.41699 -0.086,102.46533 -4.21,109.33419 -2.3114,3.85 -6.133,9.14334 -8.4925,11.76296 -4.7189,5.23912 -26.2455,16.23296 -31.7901,16.23546 -1.925,8.6e-4 -3.5,1.00812 -3.5,2.23832 0,1.2302 15.5969,24.8552 34.6596,52.5 44.2468,64.16654 47.3404,68.74904 47.3404,70.12362 0,0.6268 -31.4694,1.13964 -69.932,1.13964 l -69.932,0 -40.1843,-59.97346 c -22.1014,-32.9854 -41.5462,-61.3354 -43.2108,-63 -2.5369,-2.53686 -10.9314,-3.02654 -51.8837,-3.02654 l -48.8572,0 -0.014,49.5 c -0.01,27.225 -0.5879,55.575 -1.2892,63 l -1.275,13.5 -61.7108,0 -61.7108,0 0,-206.03988 z m 290,-61.96012 0,-60 -81.7281,0 -81.7282,0 -1.2718,9.27915 c -0.6995,5.10352 -1.2719,31.23253 -1.2719,58.06444 0,48.72291 0.01,48.78763 4.5,50.59409 2.475,0.99482 39.825,1.86582 83,1.93554 l 78.5,0.12678 0,-60 z"
       style="fill:#ffffe0;fill-opacity:1" />
    <path
       inkscape:connector-curvature="0"
       id="path3410"
       d="m 1818.9137,824.19822 c -17.8229,-6.3576 -31.9395,-20.78904 -38.4863,-39.34484 -4.444,-12.59552 -4.3499,-314.86338 0.102,-327.91424 4.5562,-13.35636 16.479,-27.61606 28.9789,-34.65871 l 11,-6.19757 179,0 179,0 9.6596,4.93419 c 10.9948,5.61628 21.0649,15.94827 27.7538,28.47569 l 4.5866,8.59012 0.5686,160 c 0.6352,178.75042 1.4354,167.78008 -13.6288,186.8378 -5.1984,6.57644 -11.7136,11.73578 -20.1321,15.9426 l -12.4466,6.2196 -174.1805,-0.0878 c -141.2709,-0.0712 -175.6155,-0.59964 -181.7752,-2.79686 z m 288.5946,-203.11536 0,-116 -106,0 -106,0 0,116 0,116 106,0 106,0 0,-116 z"
       style="fill:#ffffe0;fill-opacity:1" />
    <path
       inkscape:connector-curvature="0"
       id="path3412"
       d="m 1513.1609,301.78451 c -0.9119,-0.91194 -1.2,-19.15556 -1.2,-76 l 0,-74.8 75.5,0 75.5,0 0,16.5 0,16.5 -28.8383,0 c -15.8612,0 -39.0362,0.29678 -51.5001,0.65951 l -22.6616,0.65952 0,12.34048 0,12.34049 17.25,0.006 c 9.4875,0.003 20.9952,0.29752 25.5727,0.65382 l 8.3227,0.64783 -0.6988,5.08068 c -1.2157,8.83965 -4.3178,22.88289 -5.2635,23.82865 -0.5007,0.50063 -8.5091,1.12462 -17.7967,1.38666 -9.2875,0.26204 -19.2489,0.71579 -22.1364,1.00835 l -5.25,0.53192 0,12.92805 0,12.92804 51.3474,0 51.3473,0 0.604,12.01302 c 0.3322,6.60716 0.3382,14.25716 0.013,17 l -0.5906,4.98698 -74.1608,0 c -56.3472,0 -74.4489,-0.28824 -75.3607,-1.2 z"
       style="fill:#ffffe0;fill-opacity:1" />
    <path
       inkscape:connector-curvature="0"
       id="path3414"
       d="m 1325.5994,297.36336 c -0.3512,-2.5619 -0.6385,-36.77019 -0.6385,-76.01842 l 0,-71.36043 53.75,0.13235 c 29.5625,0.0728 60.725,0.41029 69.25,0.75 l 15.5,0.61765 0.2753,15.10658 c 0.206,11.30428 -0.046,15.37187 -1,16.16058 -0.8201,0.67784 -17.0291,1.31523 -45.4175,1.78596 l -44.1423,0.73196 -0.5967,3.60746 c -0.3282,1.9841 -0.6017,7.54496 -0.6078,12.35746 l -0.011,8.75 26.1278,0 26.1279,0 -0.6386,4.25 c -1.1218,7.46621 -4.7889,24.41005 -5.5494,25.64045 -0.5012,0.81109 -6.2626,1.34762 -18.151,1.69033 -9.5792,0.27614 -19.7724,0.73997 -22.6517,1.03073 l -5.235,0.52866 -0.265,29.17991 -0.265,29.17992 -22.6115,0.26842 -22.6116,0.26842 -0.6384,-4.65799 z"
       style="fill:#ffffe0;fill-opacity:1" />
    <path
       inkscape:connector-curvature="0"
       id="path3416"
       d="m 1140.9609,226.48451 0,-75.5 69,0 69,0 0,16.5 0,16.5 -25.25,0.003 c -13.8875,0.001 -34.3625,0.29787 -45.5,0.65872 l -20.25,0.65612 0,12.34128 0,12.34128 18.75,0.007 c 10.3125,0.004 21.7875,0.29398 25.5,0.6446 6.2392,0.58925 6.75,0.81549 6.75,2.98921 0,3.61216 -4.8289,25.58806 -5.8462,26.60532 -0.4949,0.49488 -8.7194,1.10963 -18.2768,1.3661 -9.5573,0.25649 -19.7395,0.70601 -22.627,0.99896 l -5.25,0.53262 0,29.42805 0,29.42804 -23,0 -23,0 0,-75.5 z"
       style="fill:#ffffe0;fill-opacity:1" />
    <path
       inkscape:connector-curvature="0"
       id="path3418"
       d="m 914.17812,233.16061 0.28282,-68.82391 2.68269,-4.05293 c 5.15097,-7.78196 7.57887,-8.56364 29.74514,-9.57662 24.7316,-1.13021 112.30773,-0.23381 117.00733,1.19764 4.1345,1.25932 9.5845,6.28574 12.0134,11.07972 2.5865,5.10497 3.085,23.291 2.3511,85.76771 l -0.6258,53.26772 -23.5869,-0.26772 -23.587,-0.26771 -0.2698,-21.22104 -0.2698,-21.22104 -2.7302,0.5436 c -1.5016,0.29899 -16.4552,2.67615 -33.23016,5.28259 l -30.5,4.73898 -0.61929,7.43845 c -0.34062,4.09116 -0.67812,11.37596 -0.75,16.18846 l -0.13071,8.75 -24.03282,0 -24.03283,0 0.28283,-68.8239 z m 87.72638,0.78367 c 13.9939,-2.17078 25.9189,-4.42137 26.5,-5.00132 0.6551,-0.6539 1.1785,-9.20844 1.3777,-22.51984 l 0.3213,-21.46539 -33.82127,0.26339 -33.82129,0.26339 -0.33551,6 c -0.18453,3.3 -0.0251,15.47931 0.3544,27.06514 l 0.6899,21.06514 6.64561,-0.86182 c 3.65508,-0.47401 18.0952,-2.63792 32.08916,-4.80869 z"
       style="fill:#ffffe0;fill-opacity:1" />
    <path
       inkscape:connector-curvature="0"
       id="path3420"
       d="m 728.40583,301.0558 c -6.77397,-1.63476 -12.87994,-7.56842 -14.20068,-13.79991 -0.43962,-2.07426 -0.79932,-30.32138 -0.79932,-62.77138 0,-66.01956 -0.46372,-61.6863 7.3574,-68.7522 2.83072,-2.55739 5.38689,-3.83758 8.81473,-4.41462 2.65533,-0.44699 31.0568,-0.81732 63.11438,-0.82294 50.70706,-0.009 58.41648,0.18482 59.28598,1.48976 1.28667,1.931 0.77403,29.56948 -0.57249,30.86578 -0.5833,0.56154 -19.75138,1.31096 -46,1.79846 l -45,0.83576 0,41 0,41 45.32401,0.65734 c 24.9282,0.36154 45.60835,0.94169 45.95588,1.28922 0.9208,0.9208 1.57566,24.84467 0.7941,29.01075 l -0.66462,3.54269 -60.20468,-0.10236 c -33.11258,-0.0563 -61.55469,-0.42816 -63.20469,-0.82635 z"
       style="fill:#ffffe0;fill-opacity:1" />
    <path
       inkscape:connector-curvature="0"
       id="path3422"
       d="m 1586.4637,120.49239 c -8.9585,-3.1913 -13.8711,-9.50673 -16.1719,-20.789684 -1.9082,-9.357709 -1.3597,-12.718196 2.0757,-12.718196 2.4548,0 69.1927,18.84972 81.994,23.15869 6.3512,2.13784 7.03,2.63435 7.8102,5.71326 1.6262,6.41697 3.3095,6.13236 -35.9845,6.08416 -28.0959,-0.0345 -36.6281,-0.34553 -39.7235,-1.44823 z"
       style="fill:#ffffe0;fill-opacity:1" />
    <path
       inkscape:connector-curvature="0"
       id="path3426"
       d="m 145.50696,828.57035 c -19.08794,-0.13167 -23.06079,-0.28995 -24.41111,-0.97257 l -0.45787,-0.23146 -0.11573,-6.50662 c -0.0636,-3.57864 -0.15601,-21.1835 -0.20524,-39.12192 -0.0492,-17.93841 -0.13264,-45.95973 -0.18536,-62.26959 l -0.0959,-29.65429 55.33877,0 55.33877,0 -0.001,5.34749 c -0.001,6.30787 -0.26969,55.82591 -0.52341,96.56427 -0.0987,15.84803 -0.22859,30.57816 -0.28864,32.73362 l -0.10918,3.91901 -1.43919,0.0965 c -2.33487,0.15653 -63.73833,0.22737 -82.84489,0.0956 z"
       style="fill:#ffffe0;fill-opacity:1" />
    <path
       inkscape:connector-curvature="0"
       id="path3428"
       d="M 595.55685,842.60766 C 569.75517,828.15625 489.65701,781.47643 326.07343,685.55737 c -48.52839,-28.45516 -89.70339,-52.51698 -91.5,-53.47072 l -3.26657,-1.73407 -0.31249,11.9204 c -0.17187,6.55623 -0.46201,50.28291 -0.64475,97.17041 -0.18274,46.8875 -0.46585,86.10141 -0.62913,87.14202 l -0.29689,1.89203 -53.55837,-0.14203 c -29.45711,-0.0781 -53.94885,-0.33359 -54.42609,-0.56772 -0.80789,-0.39635 -0.87722,-2.61995 -1.00554,-32.25 -0.30801,-71.11738 -0.27546,-284.26217 0.051,-333.97581 0.37596,-57.253 0.2322,-54.58323 2.8849,-53.57468 1.67922,0.63844 50.47936,29.01607 307.06289,178.5593 33.89404,19.75429 61.81864,35.91689 62.05466,35.91689 0.23629,0 0.57398,-44.31838 0.75148,-98.625 0.17729,-54.24375 0.46207,-101.13736 0.63284,-104.20803 0.28502,-5.1252 0.39761,-5.60877 1.37299,-5.8969 0.58438,-0.17263 12.98848,-0.56659 27.56468,-0.87546 26.30758,-0.55746 75.78571,-0.023 76.6373,0.82789 0.19829,0.19811 0.53246,7.14784 0.7426,15.44385 0.50784,20.04814 0.18618,412.76496 -0.33926,414.20865 -0.2252,0.61875 -0.55196,1.12153 -0.72613,1.11729 -0.17418,-0.004 -1.77919,-0.82685 -3.56669,-1.82802 z"
       style="fill:#ffffe0;fill-opacity:1" />
  </g>
</svg>
